<?xml version="1.0" encoding="UTF-8"?>
<svg xmlns="http://www.w3.org/2000/svg" width="370" height="70" viewBox="95 35 370 70">
<defs>
<clipPath id="clip-icon-dark">
<path clip-rule="nonzero" d="M 144.355469 41.15625 L 185.683594 41.15625 L 142.632812 80.921875 L 101.304688 80.921875 Z M 144.355469 41.15625 "/>
</clipPath>
<clipPath id="clip-icon-green">
<path clip-rule="nonzero" d="M 169.574219 60.554688 L 210.902344 60.554688 L 167.851562 100.320312 L 126.519531 100.320312 Z M 169.574219 60.554688 "/>
</clipPath>
</defs>
<g clip-path="url(#clip-icon-dark)">
<path fill-rule="nonzero" fill="rgb(20.391846%, 20.391846%, 19.607544%)" fill-opacity="1" d="M 144.355469 41.15625 L 185.683594 41.15625 L 142.632812 80.921875 L 101.304688 80.921875 Z M 144.355469 41.15625 "/>
</g>
<g clip-path="url(#clip-icon-green)">
<path fill-rule="nonzero" fill="rgb(66.665649%, 77.253723%, 15.293884%)" fill-opacity="1" d="M 169.574219 60.554688 L 210.902344 60.554688 L 167.851562 100.320312 L 126.519531 100.320312 Z M 169.574219 60.554688 "/>
</g>
<path fill-rule="nonzero" fill="rgb(20.391846%, 20.391846%, 19.607544%)" fill-opacity="1" d="M 231.347656 84.859375 C 230.507812 84.535156 229.597656 83.996094 228.625 83.238281 L 228.019531 84.839844 L 222.390625 84.839844 L 222.390625 76.363281 L 227.984375 76.363281 C 228.339844 77.335938 228.890625 78.027344 229.640625 78.429688 C 230.386719 78.832031 231.308594 79.035156 232.398438 79.035156 C 233.0625 79.035156 233.632812 78.898438 234.109375 78.625 C 234.582031 78.351562 234.820312 77.992188 234.820312 77.539062 C 234.820312 76.96875 234.578125 76.542969 234.089844 76.257812 C 233.605469 75.972656 232.921875 75.710938 232.042969 75.472656 C 229.8125 74.855469 227.976562 74.191406 226.542969 73.480469 C 225.105469 72.765625 223.949219 71.746094 223.070312 70.417969 C 222.191406 69.085938 221.75 67.332031 221.75 65.144531 C 221.75 63.460938 222.113281 61.976562 222.835938 60.695312 C 223.5625 59.414062 224.601562 58.414062 225.953125 57.703125 C 227.308594 56.992188 228.898438 56.632812 230.726562 56.632812 C 232.957031 56.632812 234.726562 57.347656 236.03125 58.769531 L 236.921875 57.132812 L 241.90625 57.132812 L 241.90625 65.429688 L 236.566406 65.429688 C 236.066406 64.386719 235.515625 63.664062 234.910156 63.257812 C 234.304688 62.855469 233.480469 62.652344 232.433594 62.652344 C 231.628906 62.652344 231.003906 62.796875 230.566406 63.082031 C 230.125 63.367188 229.90625 63.757812 229.90625 64.253906 C 229.90625 64.800781 230.222656 65.222656 230.851562 65.519531 C 231.480469 65.816406 232.375 66.097656 233.539062 66.355469 C 235.605469 66.832031 237.355469 67.417969 238.792969 68.121094 C 240.226562 68.820312 241.378906 69.816406 242.246094 71.109375 C 243.113281 72.40625 243.546875 74.074219 243.546875 76.113281 C 243.546875 77.847656 243.183594 79.414062 242.460938 80.816406 C 241.734375 82.214844 240.703125 83.320312 239.363281 84.128906 C 238.019531 84.933594 236.484375 85.339844 234.75 85.339844 C 233.324219 85.339844 232.191406 85.179688 231.347656 84.859375 M 246.253906 78.609375 L 248.960938 78.609375 L 248.960938 63.292969 L 246.324219 63.292969 L 246.324219 57.132812 L 261.140625 57.132812 C 264.535156 57.132812 267.328125 57.710938 269.527344 58.859375 C 271.722656 60.011719 272.820312 62.105469 272.820312 65.144531 C 272.820312 68.683594 271.859375 71.230469 269.933594 72.785156 C 268.011719 74.339844 265.128906 75.117188 261.28125 75.117188 C 260.332031 75.117188 259.464844 75.058594 258.683594 74.941406 L 258.683594 78.609375 L 261.210938 78.609375 L 261.210938 84.839844 L 246.253906 84.839844 L 246.253906 78.609375 M 259.429688 69.457031 C 262.066406 69.457031 263.382812 68.292969 263.382812 65.964844 C 263.382812 65.109375 263.089844 64.453125 262.511719 63.988281 C 261.929688 63.527344 261.152344 63.292969 260.175781 63.292969 L 258.71875 63.292969 L 258.71875 69.457031 L 259.429688 69.457031 M 275.703125 84.839844 L 275.703125 78.714844 L 279.050781 78.714844 L 279.050781 63.292969 L 275.703125 63.292969 L 275.703125 57.167969 L 299.066406 57.167969 L 299.066406 68.171875 L 294.613281 68.171875 L 292.941406 63.292969 L 287.953125 63.292969 L 287.953125 67.816406 L 292.40625 67.816406 L 292.40625 72.375 L 287.953125 72.375 L 287.953125 78.714844 L 292.941406 78.714844 L 294.613281 73.050781 L 299.066406 73.050781 L 299.066406 84.839844 L 275.703125 84.839844 M 299.777344 84.839844 L 299.777344 78.714844 L 302.519531 78.714844 L 307.292969 63.292969 L 303.660156 63.292969 L 303.660156 57.167969 L 320.894531 57.167969 L 327.058594 78.714844 L 329.800781 78.714844 L 329.800781 84.839844 L 314.238281 84.839844 L 314.238281 78.714844 L 316.480469 78.714844 L 315.730469 75.757812 L 309.464844 75.757812 L 308.679688 78.714844 L 311.992188 78.714844 L 311.992188 84.839844 L 299.777344 84.839844 M 310.355469 71.554688 L 314.914062 71.554688 L 312.882812 63.082031 L 310.355469 71.554688 M 332.007812 78.714844 L 334.785156 78.714844 L 334.785156 63.292969 L 332.007812 63.292969 L 332.007812 57.167969 L 345.894531 57.167969 L 345.894531 63.292969 L 343.6875 63.292969 L 343.6875 69.597656 L 348.28125 63.292969 L 348.28125 57.167969 L 359.109375 57.167969 L 359.109375 63.292969 L 356.722656 63.292969 L 351.203125 69.988281 L 351.203125 70.238281 C 353.078125 70.238281 354.550781 70.558594 355.617188 71.199219 C 356.6875 71.839844 357.222656 72.957031 357.222656 74.546875 L 357.222656 77.359375 C 357.222656 77.71875 357.320312 78.03125 357.523438 78.304688 C 357.726562 78.578125 358.003906 78.714844 358.359375 78.714844 L 360.355469 78.714844 L 360.355469 84.839844 L 353.980469 84.839844 C 350.085938 84.839844 348.140625 83.058594 348.140625 79.496094 L 348.140625 76.472656 C 348.140625 75.878906 347.949219 75.296875 347.570312 74.726562 C 347.191406 74.15625 346.738281 73.871094 346.21875 73.871094 L 343.6875 73.871094 L 343.6875 78.714844 L 346.464844 78.714844 L 346.464844 84.839844 L 332.007812 84.839844 L 332.007812 78.714844 M 368.8125 83.488281 C 366.710938 82.25 365.113281 80.546875 364.023438 78.375 C 362.929688 76.203125 362.382812 73.730469 362.382812 70.949219 C 362.382812 68.078125 362.929688 65.5625 364.023438 63.402344 C 365.113281 61.242188 366.707031 59.574219 368.792969 58.398438 C 370.882812 57.222656 373.386719 56.632812 376.308594 56.632812 C 379.230469 56.632812 381.734375 57.222656 383.824219 58.398438 C 385.914062 59.574219 387.503906 61.242188 388.59375 63.402344 C 389.6875 65.5625 390.234375 68.078125 390.234375 70.949219 C 390.234375 73.730469 389.6875 76.203125 388.59375 78.375 C 387.503906 80.546875 385.90625 82.25 383.804688 83.488281 C 381.703125 84.722656 379.207031 85.339844 376.308594 85.339844 C 373.414062 85.339844 370.914062 84.722656 368.8125 83.488281 M 379.195312 76.898438 C 379.859375 75.378906 380.191406 73.347656 380.191406 70.808594 C 380.191406 68.339844 379.871094 66.386719 379.230469 64.949219 C 378.589844 63.515625 377.613281 62.796875 376.308594 62.796875 C 375.003906 62.796875 374.03125 63.515625 373.386719 64.949219 C 372.746094 66.386719 372.425781 68.339844 372.425781 70.808594 C 372.425781 73.347656 372.757812 75.378906 373.425781 76.898438 C 374.089844 78.417969 375.050781 79.175781 376.308594 79.175781 C 377.566406 79.175781 378.527344 78.417969 379.195312 76.898438 M 394.4375 78.714844 L 397.214844 78.714844 L 397.214844 63.292969 L 394.4375 63.292969 L 394.4375 57.167969 L 412.207031 57.167969 C 415.078125 57.167969 417.191406 57.75 418.546875 58.914062 C 419.898438 60.078125 420.574219 62 420.574219 64.683594 C 420.574219 66.488281 420.070312 67.875 419.0625 68.851562 C 418.054688 69.824219 416.621094 70.476562 414.769531 70.808594 C 416.433594 71.070312 417.632812 71.691406 418.367188 72.679688 C 419.105469 73.664062 419.472656 74.890625 419.472656 76.363281 L 419.472656 78.609375 L 423.351562 78.609375 L 423.351562 84.839844 L 417.761719 84.839844 C 415.957031 84.839844 414.664062 84.722656 413.878906 84.484375 C 413.097656 84.246094 412.496094 83.59375 412.082031 82.523438 C 411.667969 81.457031 411.457031 79.675781 411.457031 77.183594 C 411.457031 75.757812 411.226562 74.703125 410.765625 74.011719 C 410.300781 73.324219 409.453125 72.980469 408.21875 72.980469 L 406.117188 72.980469 L 406.117188 78.714844 L 408.894531 78.714844 L 408.894531 84.839844 L 394.4375 84.839844 L 394.4375 78.714844 M 408.503906 69.027344 C 409.761719 69.027344 410.699219 68.800781 411.316406 68.351562 C 411.933594 67.898438 412.242188 67.105469 412.242188 65.964844 C 412.242188 65.132812 411.929688 64.480469 411.296875 64.007812 C 410.667969 63.53125 409.855469 63.292969 408.859375 63.292969 L 406.117188 63.292969 L 406.117188 69.027344 L 408.503906 69.027344 M 423.675781 84.839844 L 423.675781 78.714844 L 426.417969 78.714844 L 431.1875 63.292969 L 427.554688 63.292969 L 427.554688 57.167969 L 444.792969 57.167969 L 450.953125 78.714844 L 453.695312 78.714844 L 453.695312 84.839844 L 438.132812 84.839844 L 438.132812 78.714844 L 440.375 78.714844 L 439.628906 75.757812 L 433.359375 75.757812 L 432.578125 78.714844 L 435.890625 78.714844 L 435.890625 84.839844 L 423.675781 84.839844 M 434.25 71.554688 L 438.808594 71.554688 L 436.78125 63.082031 L 434.25 71.554688 "/>
</svg>
